<svg width="21" height="21" viewBox="0 0 21 21" fill="none" xmlns="http://www.w3.org/2000/svg">
<path d="M19.4208 18.2108L15.755 14.5658C16.7392 13.265 17.2633 11.5 17.3042 9.29167C17.2167 4.2125 14.3817 1.3975 9.31418 1.36417C4.18584 1.39667 1.33334 4.37417 1.33334 9.29083C1.33334 14.4533 4.18834 17.2175 9.32418 17.2475C11.515 17.2342 13.2733 16.7258 14.5767 15.7433L18.2458 19.3925C18.6775 19.8025 19.1883 19.635 19.4242 19.3892C19.7433 19.0575 19.7475 18.535 19.4208 18.2108ZM3.00001 9.30583C3.08084 5.11 5.14918 3.05667 9.31334 3.03083C13.4375 3.0575 15.5658 5.17333 15.6375 9.29083C15.5592 13.5575 13.55 15.5558 9.32418 15.5808C5.09334 15.5558 3.08334 13.5625 3.00001 9.30583Z" fill="#1A1A1A"/>
</svg>
