<svg width="20" height="21" viewBox="0 0 20 21" fill="none" xmlns="http://www.w3.org/2000/svg">
<g clip-path="url(#clip0_19_45)">
<path d="M10 10.5C10.9889 10.5 11.9556 10.2068 12.7779 9.65735C13.6001 9.10794 14.241 8.32705 14.6194 7.41342C14.9978 6.49979 15.0969 5.49445 14.9039 4.52455C14.711 3.55464 14.2348 2.66373 13.5355 1.96446C12.8363 1.2652 11.9454 0.788998 10.9755 0.596072C10.0055 0.403146 9.00021 0.502163 8.08658 0.880601C7.17295 1.25904 6.39206 1.8999 5.84265 2.72215C5.29324 3.54439 5 4.51109 5 5.5C5.00132 6.82568 5.52853 8.09668 6.46593 9.03407C7.40332 9.97147 8.67432 10.4987 10 10.5ZM10 2.16667C10.6593 2.16667 11.3037 2.36216 11.8519 2.72843C12.4001 3.0947 12.8273 3.6153 13.0796 4.22439C13.3319 4.83347 13.3979 5.5037 13.2693 6.1503C13.1407 6.7969 12.8232 7.39085 12.357 7.85702C11.8908 8.3232 11.2969 8.64067 10.6503 8.76928C10.0037 8.8979 9.33348 8.83189 8.72439 8.5796C8.1153 8.32731 7.59471 7.90006 7.22844 7.3519C6.86216 6.80374 6.66667 6.15927 6.66667 5.5C6.66667 4.61594 7.01786 3.7681 7.64298 3.14298C8.2681 2.51785 9.11595 2.16667 10 2.16667Z" fill="black"/>
<path d="M10 12.1C8.01155 12.1022 6.10518 12.8931 4.69914 14.2991C3.29309 15.7052 2.50221 17.6116 2.5 19.6C2.5 19.821 2.5878 20.033 2.74408 20.1893C2.90036 20.3455 3.11232 20.4333 3.33333 20.4333C3.55435 20.4333 3.76631 20.3455 3.92259 20.1893C4.07887 20.033 4.16667 19.821 4.16667 19.6C4.16667 18.0529 4.78125 16.5692 5.87521 15.4752C6.96917 14.3812 8.4529 13.7667 10 13.7667C11.5471 13.7667 13.0308 14.3812 14.1248 15.4752C15.2188 16.5692 15.8333 18.0529 15.8333 19.6C15.8333 19.821 15.9211 20.033 16.0774 20.1893C16.2337 20.3455 16.4457 20.4333 16.6667 20.4333C16.8877 20.4333 17.0996 20.3455 17.2559 20.1893C17.4122 20.033 17.5 19.821 17.5 19.6C17.4978 17.6116 16.7069 15.7052 15.3009 14.2991C13.8948 12.8931 11.9884 12.1022 10 12.1Z" fill="black"/>
</g>
<defs>
<clipPath id="clip0_19_45">
<rect width="20" height="20" fill="white" transform="translate(0 0.5)"/>
</clipPath>
</defs>
</svg>
